<?xml version="1.0" ?><svg height="400" id="svg" style="display: block;" version="1.1" width="400" xmlns="http://www.w3.org/2000/svg" xmlns:xlink="http://www.w3.org/1999/xlink"><g id="svgg"><path d="" fill="#000000" fill-rule="evenodd" id="path0" stroke="none"/><path d="" fill="#2b2b2b" fill-rule="evenodd" id="path1" stroke="none"/><path d="M183.984 0.431 C 62.305 11.041,-21.365 124.099,4.528 242.920 C 28.104 351.104,136.466 419.455,245.117 394.674 C 324.809 376.498,386.519 309.667,398.005 229.102 C 399.677 217.374,399.805 215.289,399.805 199.805 C 399.805 184.320,399.677 182.236,398.005 170.508 C 383.293 67.309,287.750 -8.617,183.984 0.431 M211.523 16.806 C 325.729 24.372,405.210 132.229,378.328 243.164 C 358.476 325.089,284.481 383.191,200.000 383.191 C 98.875 383.191,16.406 300.816,16.406 199.805 C 16.406 94.321,106.474 9.848,211.523 16.806 M288.989 88.257 C 288.412 88.441,286.654 89.550,285.083 90.722 C 281.210 93.612,263.113 106.858,260.984 108.362 C 259.030 109.741,251.487 115.282,246.289 119.155 C 243.296 121.386,224.389 135.222,216.472 140.976 C 213.529 143.115,205.640 148.909,200.195 152.931 C 190.199 160.316,171.283 174.129,167.688 176.671 C 163.064 179.939,163.219 179.603,165.251 181.962 C 166.120 182.970,167.394 184.604,168.083 185.593 C 170.325 188.809,173.119 192.651,178.134 199.414 C 180.842 203.066,185.762 209.746,189.067 214.258 C 192.373 218.770,196.502 224.395,198.244 226.758 C 204.785 235.633,212.743 246.586,213.689 248.019 L 214.292 248.931 219.158 247.082 C 229.740 243.061,232.031 241.927,232.031 240.711 C 232.031 240.358,231.218 237.391,230.224 234.118 C 227.964 226.679,227.533 227.388,235.526 225.396 C 243.871 223.316,243.414 224.067,241.398 215.740 C 239.288 207.022,238.773 207.979,246.632 206.014 C 255.273 203.853,254.766 204.636,252.754 196.565 C 250.504 187.534,250.035 188.437,257.961 186.539 C 266.497 184.494,266.046 185.252,263.887 176.588 C 261.716 167.877,260.909 169.069,270.538 166.761 C 277.631 165.061,277.347 165.654,275.202 157.031 C 273.176 148.890,272.882 149.565,279.144 148.002 C 289.490 145.421,288.680 146.585,286.422 137.534 C 284.372 129.316,283.820 130.195,292.386 128.039 C 300.354 126.032,299.875 126.964,297.660 117.790 C 295.745 109.854,295.180 110.761,303.516 108.390 C 313.121 105.659,312.983 105.957,307.129 100.551 C 293.332 87.809,292.395 87.174,288.989 88.257 M157.202 184.486 C 156.759 184.747,155.792 185.412,155.054 185.964 C 151.110 188.911,145.420 193.096,138.086 198.445 C 133.574 201.736,128.213 205.662,126.172 207.171 C 124.131 208.679,121.758 210.416,120.898 211.030 C 119.476 212.048,112.922 216.854,104.297 223.206 C 102.471 224.551,97.285 228.342,92.773 231.631 C 78.731 241.867,78.499 242.567,85.868 252.441 C 90.237 258.295,93.897 259.321,98.351 255.941 C 100.351 254.423,100.311 254.387,106.818 263.477 C 108.510 265.840,111.853 270.410,114.248 273.633 C 123.124 285.579,124.277 287.163,125.064 288.498 L 125.869 289.862 123.887 291.660 C 120.772 294.485,119.931 298.258,121.767 301.172 C 127.934 310.964,132.288 313.631,136.901 310.442 C 138.418 309.393,154.688 297.532,157.104 295.713 C 158.110 294.956,160.044 293.550,161.400 292.589 C 162.757 291.628,166.943 288.567,170.703 285.787 C 174.463 283.006,178.418 280.082,179.492 279.288 C 180.566 278.494,185.488 274.891,190.430 271.282 C 213.918 254.125,213.091 256.580,200.945 240.076 C 193.297 229.684,188.788 223.515,185.646 219.141 C 184.642 217.744,181.542 213.525,178.756 209.766 C 172.010 200.662,170.444 198.532,165.266 191.406 C 159.636 183.660,159.217 183.300,157.202 184.486 M137.316 221.101 C 138.019 221.535,140.149 224.010,142.051 226.600 C 146.556 232.739,151.134 239.012,153.424 242.188 C 154.431 243.584,157.726 248.066,160.744 252.148 C 163.763 256.230,166.894 260.482,167.702 261.597 C 170.590 265.579,169.960 269.434,165.927 272.458 C 145.607 287.696,145.198 287.790,138.668 278.672 C 137.914 277.619,134.222 272.571,130.465 267.455 C 109.942 239.508,110.985 241.053,110.955 238.559 C 110.915 235.160,111.111 234.968,125.391 224.495 C 132.080 219.589,133.990 219.045,137.316 221.101 " fill="#e6e6e6" fill-rule="evenodd" id="path2" stroke="none"/><path d="" fill="#404040" fill-rule="evenodd" id="path3" stroke="none"/><path d="" fill="#555555" fill-rule="evenodd" id="path4" stroke="none"/></g></svg>