<svg width="400" height="400" xmlns="http://www.w3.org/2000/svg">

 <g>
  <title>background</title>
  <rect fill="none" id="canvas_background" height="402" width="582" y="-1" x="-1"/>
 </g>
 <g>
  <title>Layer 1</title>
  <path id="path0" fill-rule="evenodd" fill="#000000" d="m198.047,175.977c1.384,1.396 2.604,2.539 2.712,2.539c0.107,0 -0.937,-1.143 -2.321,-2.539c-1.385,-1.397 -2.605,-2.539 -2.712,-2.539c-0.108,0 0.937,1.142 2.321,2.539m-85.755,35.449l-2.331,2.441l2.441,-2.331c2.268,-2.166 2.62,-2.552 2.332,-2.552c-0.061,0 -1.159,1.099 -2.442,2.442m48.841,0.293c1.275,1.289 2.407,2.344 2.514,2.344c0.108,0 -0.848,-1.055 -2.124,-2.344c-1.275,-1.289 -2.407,-2.344 -2.514,-2.344c-0.108,0 0.848,1.055 2.124,2.344m1.562,23.828c1.276,1.289 2.407,2.344 2.515,2.344c0.107,0 -0.848,-1.055 -2.124,-2.344c-1.276,-1.289 -2.407,-2.344 -2.515,-2.344c-0.107,0 0.849,1.055 2.124,2.344m88.648,7.129l-1.148,1.269l1.27,-1.147c0.698,-0.631 1.269,-1.202 1.269,-1.27c0,-0.301 -0.322,-0.036 -1.391,1.148"/>
  <path id="path1" fill-rule="evenodd" fill="#2b2b2b" d="m188.281,166.211c1.384,1.396 2.605,2.539 2.712,2.539c0.107,0 -0.937,-1.143 -2.321,-2.539c-1.384,-1.397 -2.605,-2.539 -2.712,-2.539c-0.107,0 0.937,1.142 2.321,2.539m-17.968,54.687c1.166,1.182 2.209,2.149 2.317,2.149c0.107,0 -0.76,-0.967 -1.927,-2.149c-1.167,-1.181 -2.21,-2.148 -2.317,-2.148c-0.107,0 0.76,0.967 1.927,2.148m-16.602,5.665c1.276,1.289 2.407,2.343 2.515,2.343c0.107,0 -0.849,-1.054 -2.124,-2.343c-1.276,-1.29 -2.408,-2.344 -2.515,-2.344c-0.107,0 0.848,1.054 2.124,2.344m90.026,23.73l-2.135,2.246l2.246,-2.135c2.086,-1.984 2.425,-2.357 2.135,-2.357c-0.061,0 -1.072,1.011 -2.246,2.246"/>
  <path id="path2" fill-rule="evenodd" fill="#e6e6e6" d="m183.984,0.433c-121.413,10.305 -205.34,123.708 -179.456,242.487c28.603,131.255 178.217,197.342 295.081,130.343c56.417,-32.344 91.722,-86.859 99.685,-153.927c0.698,-5.874 0.698,-33.189 0,-39.063c-11.735,-98.838 -85.803,-171.514 -183.278,-179.834c-5.053,-0.431 -26.97,-0.435 -32.032,-0.006m27.539,16.373c114.203,7.566 193.686,115.426 166.805,226.358c-19.852,81.927 -93.845,140.027 -178.328,140.027c-101.125,0 -183.594,-82.375 -183.594,-183.386c0,-105.491 90.061,-189.958 195.117,-182.999m73.243,88.895c-10.913,2.87 -29.275,15.103 -39.672,26.43c-4.098,4.464 -15.797,21.047 -15.797,22.391c0,0.376 -8.729,13.733 -11.449,17.518c-1.531,2.132 -4.681,5.823 -6.998,8.203l-4.215,4.327l-14.579,-14.738c-20.719,-20.944 -17.515,-20.873 -37.417,-0.833c-15.303,15.409 -15.396,15.536 -14.379,19.784c0.475,1.989 28.931,31.282 70.551,72.628c11.476,11.4 10.78,11.577 29.423,-7.462c19.188,-19.596 19.325,-16.408 -1.602,-37.375l-14.454,-14.48l4.238,-4.094c5.928,-5.727 10.814,-9.313 22.561,-16.561c17.726,-10.936 24.204,-15.981 31.791,-24.754c27.258,-31.518 28.291,-57.9 1.998,-50.984m-162.305,96.421c-2.302,1.04 -51.177,50.599 -51.692,52.416c-1.225,4.315 0.834,8.164 5.312,9.933c12.596,4.977 21.684,11.725 37.591,27.913c10.906,11.099 21.72,20.027 27.93,23.057c17.956,8.764 39.356,0.386 60.579,-23.714c5.079,-5.768 5.943,-8.37 3.971,-11.95c-1.305,-2.369 -75.545,-76.862 -77.356,-77.618c-1.749,-0.731 -4.759,-0.748 -6.335,-0.037"/>
  <path id="path3" fill-rule="evenodd" fill="#404040"/>
  <path id="path4" fill-rule="evenodd" fill="#555555" d="m193.164,171.094c1.276,1.289 2.407,2.344 2.515,2.344c0.107,0 -0.849,-1.055 -2.124,-2.344c-1.276,-1.289 -2.407,-2.344 -2.515,-2.344c-0.107,0 0.848,1.055 2.124,2.344m-76.38,35.84l-2.136,2.246l2.247,-2.135c2.086,-1.984 2.425,-2.357 2.135,-2.357c-0.061,0 -1.072,1.01 -2.246,2.246m48.841,9.277c1.167,1.182 2.21,2.148 2.317,2.148c0.107,0 -0.759,-0.966 -1.926,-2.148c-1.167,-1.182 -2.21,-2.148 -2.317,-2.148c-0.108,0 0.759,0.966 1.926,2.148m-7.422,14.844c1.167,1.181 2.21,2.148 2.317,2.148c0.108,0 -0.759,-0.967 -1.926,-2.148c-1.167,-1.182 -2.21,-2.149 -2.317,-2.149c-0.108,0 0.759,0.967 1.926,2.149m89.831,14.941l-2.136,2.246l2.247,-2.135c2.086,-1.983 2.425,-2.357 2.135,-2.357c-0.061,0 -1.072,1.011 -2.246,2.246"/>
 </g>
</svg>