<?xml version="1.0" ?><svg height="400" id="svg" style="display: block;" version="1.1" width="400" xmlns="http://www.w3.org/2000/svg" xmlns:xlink="http://www.w3.org/1999/xlink"><g id="svgg"><path d="" fill="#000000" fill-rule="evenodd" id="path0" stroke="none"/><path d="" fill="#2b2b2b" fill-rule="evenodd" id="path1" stroke="none"/><path d="M183.984 0.433 C 62.571 10.738,-21.356 124.141,4.528 242.920 C 33.131 374.175,182.745 440.262,299.609 373.263 C 356.026 340.919,391.331 286.404,399.294 219.336 C 399.992 213.462,399.992 186.147,399.294 180.273 C 387.559 81.435,313.491 8.759,216.016 0.439 C 210.963 0.008,189.046 0.004,183.984 0.433 M211.523 16.806 C 325.726 24.372,405.209 132.232,378.328 243.164 C 358.476 325.091,284.483 383.191,200.000 383.191 C 98.875 383.191,16.406 300.816,16.406 199.805 C 16.406 94.314,106.467 9.847,211.523 16.806 M120.093 113.625 C 109.972 116.239,106.461 129.138,113.857 136.534 C 119.124 141.801,127.561 141.878,132.733 136.707 L 134.283 135.156 154.739 135.165 L 175.195 135.174 177.051 136.945 L 178.906 138.715 178.906 142.990 L 178.906 147.266 169.199 147.266 C 153.807 147.266,153.148 147.822,153.134 160.840 L 153.125 168.359 125.781 168.359 L 98.438 168.359 98.438 190.430 L 98.438 212.500 128.842 212.500 L 159.247 212.500 161.362 216.105 C 172.813 235.629,199.674 235.213,211.666 215.327 L 213.371 212.500 224.677 212.500 C 240.086 212.500,241.408 212.960,243.276 218.971 C 244.573 223.147,244.538 224.272,243.066 225.744 C 240.043 228.767,240.582 233.562,244.274 236.501 L 245.775 237.695 270.631 237.804 C 289.129 237.885,295.789 237.794,296.669 237.449 C 302.136 235.303,303.096 227.683,298.296 224.537 L 296.957 223.659 296.774 208.998 C 296.513 188.121,294.615 182.982,284.355 175.376 C 275.809 169.041,271.599 168.367,240.527 168.363 L 217.969 168.359 217.953 163.965 C 217.896 147.802,217.399 147.266,202.478 147.266 L 192.969 147.266 192.969 142.935 L 192.969 138.603 194.824 136.895 L 196.680 135.187 215.251 135.172 L 233.822 135.156 235.525 136.891 C 243.641 145.161,258.005 138.818,258.007 126.963 C 258.009 114.824,243.482 108.690,235.153 117.312 L 233.398 119.128 215.272 119.134 L 197.146 119.141 195.058 117.166 C 189.598 112.002,182.277 112.002,176.817 117.166 L 174.729 119.141 154.717 119.141 L 134.704 119.141 132.928 117.364 C 129.582 114.019,124.407 112.511,120.093 113.625 M268.708 245.396 C 266.690 249.410,262.687 258.412,260.750 263.291 C 259.942 265.326,258.967 267.695,258.582 268.555 C 252.464 282.236,248.437 295.791,248.905 301.125 C 251.472 330.382,292.339 328.773,292.357 299.414 C 292.360 294.369,292.165 293.585,288.481 283.789 C 283.412 270.313,271.345 242.188,270.632 242.188 C 270.461 242.188,269.595 243.631,268.708 245.396 " fill="#353535" fill-rule="evenodd" id="path2" stroke="none"/><path d="" fill="#404040" fill-rule="evenodd" id="path3" stroke="none"/><path d="" fill="#555555" fill-rule="evenodd" id="path4" stroke="none"/></g></svg>